<svg width="65" height="64" viewBox="0 0 65 64" fill="none" xmlns="http://www.w3.org/2000/svg">
<path d="M0.5 32C0.5 14.3269 14.8269 0 32.5 0C50.1731 0 64.5 14.3269 64.5 32C64.5 49.6731 50.1731 64 32.5 64C14.8269 64 0.5 49.6731 0.5 32Z" fill="#FF3541" fill-opacity="0.16"/>
<path fill-rule="evenodd" clip-rule="evenodd" d="M32.4993 22.9974C27.5288 22.9974 23.4993 27.0268 23.4993 31.9974C23.4993 36.968 27.5288 40.9974 32.4993 40.9974C37.4699 40.9974 41.4993 36.968 41.4993 31.9974C41.4993 27.0268 37.4699 22.9974 32.4993 22.9974ZM20.166 31.9974C20.166 25.1859 25.6878 19.6641 32.4993 19.6641C39.3109 19.6641 44.8327 25.1859 44.8327 31.9974C44.8327 38.8089 39.3109 44.3307 32.4993 44.3307C25.6878 44.3307 20.166 38.8089 20.166 31.9974ZM28.1208 27.6189C28.7717 26.968 29.827 26.968 30.4779 27.6189L32.4993 29.6404L34.5208 27.6189C35.1717 26.968 36.227 26.968 36.8779 27.6189C37.5287 28.2698 37.5287 29.325 36.8779 29.9759L34.8564 31.9974L36.8779 34.0189C37.5287 34.6698 37.5287 35.725 36.8779 36.3759C36.227 37.0268 35.1717 37.0268 34.5208 36.3759L32.4993 34.3544L30.4779 36.3759C29.827 37.0268 28.7717 37.0268 28.1208 36.3759C27.47 35.725 27.47 34.6698 28.1208 34.0189L30.1423 31.9974L28.1208 29.9759C27.47 29.325 27.47 28.2698 28.1208 27.6189Z" fill="#FF3541"/>
</svg>
