<svg width="301" height="215" viewBox="0 0 301 215" fill="none" xmlns="http://www.w3.org/2000/svg">
<path d="M38.7915 34.1416C48.2194 34.1416 55.8623 26.4987 55.8623 17.0708C55.8623 7.64286 48.2194 0 38.7915 0C29.3636 0 21.7207 7.64286 21.7207 17.0708C21.7207 26.4987 29.3636 34.1416 38.7915 34.1416Z" fill="#FFB800"/>
<path d="M239.297 174.7C233.346 174.7 227.588 172.589 223.047 168.743C218.505 164.896 215.475 159.565 214.495 153.695L214.475 153.571L214.555 153.474C215.889 151.874 217.011 150.108 217.891 148.219C216.918 149.28 215.816 150.215 214.61 151.002L214.208 151.27L214.185 150.787C214.164 150.371 214.154 149.957 214.154 149.558C214.152 147.21 214.476 144.873 215.117 142.615C218.036 132.355 218.535 121.338 216.601 109.869C216.27 107.903 216.104 105.912 216.104 103.918C216.107 95.4908 219.11 87.3399 224.574 80.9248C230.039 74.5097 237.609 70.2493 245.928 68.9065C254.248 67.5637 262.773 69.2261 269.979 73.5962C277.184 77.9662 282.599 84.7584 285.253 92.7566L285.334 93.0005L285.096 93.0967C283.308 93.8534 281.413 94.3237 279.479 94.4904C281.522 94.9605 283.619 95.1619 285.715 95.0894L285.936 95.0817L285.99 95.2968C286.693 98.1166 287.048 101.012 287.047 103.918L287.046 104.232C287.04 106.458 287.502 108.66 288.403 110.695C289.305 112.729 290.625 114.551 292.278 116.042C294.964 118.485 297.088 121.482 298.505 124.825C299.923 128.168 300.599 131.779 300.487 135.408C300.376 139.038 299.479 142.6 297.86 145.85C296.24 149.1 293.935 151.961 291.105 154.235L290.974 154.341L290.82 154.271C287.582 152.802 285.223 151.202 283.499 149.291C284.648 151.743 286.197 153.987 288.08 155.932L288.324 156.183L288.022 156.359C284.177 158.601 279.807 159.781 275.357 159.779L275.23 159.779C275.185 159.779 275.14 159.779 275.095 159.779C268.288 159.779 261.836 162.411 257.374 167.013C255.024 169.433 252.215 171.36 249.111 172.68C246.007 174 242.67 174.687 239.297 174.7Z" fill="#1D8D3C"/>
<path d="M230.4 214.31C230.291 214.31 230.185 214.271 230.103 214.199C230.02 214.128 229.967 214.029 229.951 213.921C229.932 213.785 228.044 200.166 229.74 182.066C231.306 165.35 236.336 141.273 251.403 121.499C251.439 121.452 251.484 121.412 251.535 121.382C251.587 121.352 251.644 121.332 251.703 121.324C251.762 121.316 251.822 121.32 251.88 121.335C251.937 121.351 251.991 121.377 252.039 121.413C252.086 121.449 252.126 121.494 252.156 121.546C252.186 121.597 252.205 121.654 252.213 121.713C252.221 121.772 252.218 121.832 252.202 121.89C252.187 121.948 252.161 122.002 252.125 122.049C237.188 141.652 232.198 165.553 230.643 182.151C228.957 200.145 230.831 213.658 230.85 213.793C230.859 213.857 230.854 213.923 230.836 213.985C230.817 214.047 230.786 214.105 230.743 214.154C230.7 214.203 230.648 214.243 230.588 214.27C230.529 214.296 230.465 214.31 230.4 214.31Z" fill="#125A26"/>
<path d="M237.933 147.646C237.837 147.646 237.743 147.616 237.666 147.56C237.588 147.503 237.53 147.424 237.501 147.333C237.471 147.242 237.471 147.143 237.501 147.052C237.53 146.961 237.588 146.882 237.666 146.825C241.959 143.919 246.597 141.558 251.473 139.797C259.09 137.008 270.674 134.48 282.599 138.275C282.656 138.293 282.709 138.322 282.754 138.36C282.8 138.399 282.837 138.446 282.865 138.499C282.892 138.552 282.909 138.61 282.914 138.669C282.919 138.728 282.912 138.788 282.894 138.845C282.876 138.902 282.847 138.954 282.808 139C282.77 139.045 282.723 139.083 282.67 139.11C282.617 139.138 282.559 139.154 282.5 139.159C282.441 139.164 282.381 139.158 282.324 139.14C270.643 135.422 259.269 137.909 251.785 140.649C246.987 142.38 242.424 144.702 238.199 147.559C238.122 147.616 238.028 147.646 237.933 147.646Z" fill="#125A26"/>
<path d="M53.5718 180.614C49.3385 180.607 42.6739 180.948 39.0436 182.865C36.2539 184.338 33.7133 186.241 31.515 188.504C30.6677 189.38 29.8652 190.298 29.1105 191.254C27.0228 184.112 26.7798 176.557 28.4043 169.296C28.5185 168.807 28.4809 168.295 28.2967 167.828C28.1124 167.361 27.7901 166.961 27.3728 166.682C26.9555 166.403 26.4631 166.258 25.9612 166.266C25.4592 166.274 24.9717 166.435 24.5635 166.727C18.666 171.028 14.8955 178.317 13.9785 185.69C12.8102 195.085 15.5613 204.552 19.3848 213.216L19.3836 213.22C19.3766 213.259 19.3659 213.301 19.3553 213.344C19.3412 213.407 19.3235 213.471 19.3094 213.535C19.2845 213.644 19.2563 213.758 19.2314 213.867L19.8506 213.839C19.886 213.857 19.9214 213.871 19.9566 213.889H35.4632C35.6687 213.665 35.8601 213.428 36.0364 213.181C37.7523 210.828 38.4633 207.641 39.3302 204.764C39.9579 202.682 40.7433 200.65 41.6794 198.686C44.0363 193.754 47.2884 189.302 51.2705 185.557C51.3978 185.437 51.5288 185.317 51.6597 185.2C52.3266 184.587 53.3604 183.766 54.3707 182.996C54.5914 182.828 54.754 182.596 54.8356 182.331C54.9172 182.066 54.9137 181.782 54.8255 181.519C54.7373 181.256 54.5689 181.027 54.344 180.865C54.1191 180.703 53.849 180.615 53.5718 180.614Z" fill="#1D8D3C"/>
<path d="M158.27 34.4054C158.634 35.4253 158.584 36.5477 158.128 37.5306C157.673 38.5135 156.85 39.2781 155.836 39.6596C155.612 39.7434 155.381 39.8072 155.145 39.8501L152.802 54.199L147.305 49.1233L150.373 36.2756C150.259 35.1929 150.576 34.1091 151.255 33.2584C151.935 32.4077 152.921 31.8584 154.002 31.7294C154.912 31.6251 155.829 31.8333 156.605 32.3195C157.38 32.8058 157.967 33.5414 158.27 34.4054Z" fill="#83554B"/>
<path d="M117.701 66.9134C117.701 66.9134 121.968 61.2762 137.45 61.4306L146.237 58.2378L148.246 39.8281L155.275 41.5017L154.271 64.2628L139.208 72.9656L119.46 76.9822L117.701 66.9134Z" fill="#002FB3"/>
<path d="M93.9121 205.698L97.9679 207.426L106.565 192.606L100.579 190.055L93.9121 205.698Z" fill="#83554B"/>
<path d="M127.427 209.536L131.835 209.536L133.932 192.531L127.426 192.532L127.427 209.536Z" fill="#83554B"/>
<path d="M127.27 214.14L140.827 214.139V213.968C140.826 212.568 140.27 211.226 139.281 210.237C138.291 209.247 136.949 208.691 135.55 208.691L133.073 206.812L128.453 208.691L127.27 208.691L127.27 214.14Z" fill="#010E33"/>
<path d="M91.4453 208.645L103.917 213.96L103.984 213.802C104.533 212.515 104.547 211.062 104.025 209.764C103.503 208.465 102.486 207.428 101.199 206.879L99.6569 204.18L94.6699 204.097L93.5812 203.633L91.4453 208.645Z" fill="#010E33"/>
<path d="M131.751 108.9L138.451 149.698L136.628 155.777L139.02 160.083L135.507 197.896L136.933 201.036L132.948 203.494H124.839L124.408 169.261L122.405 164.235V161.465L118.328 140.591L117.577 164.468L116.391 169.502L117.387 173.087L116.085 175.598L104.929 199.554H95.8359L96.5392 194.136C94.9101 193.311 98.9851 190.901 99.3767 189.117L98.0378 186.105L99.3767 180.414L100.604 169.296L99.3097 145.825L99.9189 114.22L110.556 106.086L131.751 108.9Z" fill="#010E33"/>
<path d="M115.435 55.1748C120.51 55.1748 124.624 51.0608 124.624 45.9858C124.624 40.9109 120.51 36.7969 115.435 36.7969C110.36 36.7969 106.246 40.9109 106.246 45.9858C106.246 51.0608 110.36 55.1748 115.435 55.1748Z" fill="#83554B"/>
<path d="M99.4668 125.827C99.7244 125.365 99.8775 124.853 99.9156 124.325C99.9536 123.798 99.8756 123.269 99.687 122.775C99.4984 122.281 99.2038 121.835 98.8239 121.467C98.4441 121.099 97.9883 120.819 97.4885 120.647L97.4668 107.797L91.8984 111.482L92.7728 123.12C92.5387 123.979 92.6277 124.894 93.023 125.691C93.4183 126.488 94.0924 127.113 94.9176 127.447C95.7427 127.78 96.6615 127.8 97.5 127.501C98.3385 127.203 99.0383 126.607 99.4668 125.827Z" fill="#83554B"/>
<path d="M98.9525 68.9681L96.4648 66.5703L94.6374 67.8893C94.6374 67.8893 92.8394 70.0469 91.401 76.5196C89.9626 82.9924 91.401 118.592 91.401 118.592L99.3121 117.514L98.2333 98.8146L101.47 82.9923L98.9525 68.9681Z" fill="#002FB3"/>
<path d="M95.2793 67.1559L103.66 63.1524L109.351 57.8745L119.727 57.7969L123.074 62.1483L131.911 65.15L130.438 95.6204L131.442 97.9635C131.442 97.9635 130.743 98.5954 130.423 98.9489C130.103 99.3023 130.865 102.261 130.865 102.261L131.294 105.481L130.104 106.331L131.651 108.16L132.036 111.042C132.036 111.042 105.018 104.327 99.9136 115.451C99.6439 116.038 100.308 110.294 100.308 110.294L100.972 106.089L100.313 102.315L99.3091 101.311L100.993 99.6265L99.9136 91.6354L95.2793 67.1559Z" fill="#002FB3"/>
<path d="M182.762 205.52H177.789L175.422 186.336H182.762V205.52Z" fill="#FFD0B6"/>
<path d="M185.385 214.139H181.819L181.182 210.771L179.551 214.139H170.091C169.638 214.139 169.196 213.994 168.831 213.725C168.466 213.456 168.196 213.078 168.061 212.645C167.926 212.212 167.933 211.747 168.081 211.319C168.229 210.89 168.51 210.52 168.883 210.262L176.438 205.045V201.641L184.383 202.115L185.385 214.139Z" fill="#010E33"/>
<path d="M231.131 195.649L226.853 198.186L215.031 182.893L221.345 179.148L231.131 195.649Z" fill="#FFD0B6"/>
<path d="M237.786 201.729L234.718 203.549L232.453 200.977L232.768 204.705L224.631 209.531C224.241 209.762 223.788 209.863 223.336 209.818C222.885 209.773 222.46 209.585 222.123 209.282C221.786 208.978 221.555 208.575 221.464 208.131C221.372 207.686 221.425 207.225 221.615 206.813L225.451 198.472L223.714 195.544L230.791 191.898L237.786 201.729Z" fill="#010E33"/>
<path d="M180.542 82.8594L178.125 98.2673L201.086 98.5692L198.065 83.7658L180.542 82.8594Z" fill="#FFD0B6"/>
<path d="M178.036 98.0726L171.478 113.977L171 156.511L176.596 197.121H182.79L185.327 157.173L191.568 129.839L197.724 158.427L216.864 186.41H226.268L208.978 155.574L206.976 121.984C206.976 121.984 208.224 107.734 201.84 99.3248L200.287 94.8359L178.036 98.0726Z" fill="#010E33"/>
<path d="M210.16 109.686C209.521 109.511 208.928 109.199 208.422 108.771C207.916 108.343 207.511 107.809 207.234 107.207C206.957 106.605 206.816 105.949 206.82 105.287C206.823 104.624 206.972 103.97 207.256 103.371L197.488 71.5258L204.673 70.1016L213.607 101.317C214.581 101.86 215.322 102.742 215.69 103.796C216.057 104.849 216.025 106.001 215.601 107.032C215.176 108.064 214.387 108.904 213.385 109.393C212.382 109.882 211.235 109.986 210.16 109.686Z" fill="#FFD0B6"/>
<path d="M198.571 94.0458L181.404 86.0417C180.952 86.032 180.515 85.8744 180.161 85.5928C179.807 85.3113 179.554 84.9214 179.443 84.4829C178.594 81.1235 176.728 77.3893 177.718 68.6693C177.913 66.98 178.445 65.3471 179.283 63.8672C180.121 62.3872 181.247 61.0903 182.594 60.0531C183.942 59.016 185.484 58.2596 187.129 57.8288C188.774 57.3981 190.489 57.3016 192.172 57.5452C193.947 57.7994 195.648 58.426 197.165 59.3841C198.681 60.3421 199.977 61.6099 200.969 63.1042C201.961 64.5986 202.625 66.2857 202.919 68.055C203.213 69.8242 203.129 71.6356 202.674 73.3702C200.681 80.9362 200.895 89.0267 200.668 92.1363C200.634 92.5859 200.454 93.0121 200.156 93.3499C199.857 93.6877 199.456 93.9184 199.014 94.0068C198.882 94.033 198.749 94.0462 198.615 94.0463C198.6 94.0463 198.585 94.0461 198.571 94.0458Z" fill="#FF3541"/>
<path d="M161.611 40.5622C161.515 40.7753 161.403 40.9805 161.276 41.176L169.484 60.4229L174.529 61.0418L174.59 68.7783L165.552 68.5506C164.822 68.5322 164.117 68.2775 163.544 67.8246C162.971 67.3717 162.561 66.7452 162.374 66.039L156.29 43.0245C155.428 42.7675 154.665 42.2541 154.102 41.5527C153.539 40.8513 153.203 39.9951 153.138 39.0981C153.074 38.201 153.284 37.3056 153.741 36.5309C154.198 35.7561 154.88 35.1389 155.696 34.7611C156.512 34.3834 157.424 34.2631 158.31 34.4163C159.196 34.5694 160.015 34.9888 160.657 35.6185C161.299 36.2483 161.734 37.0586 161.905 37.9417C162.075 38.8248 161.972 39.7388 161.611 40.5622Z" fill="#FFD0B6"/>
<path d="M170.31 59.7349C170.514 59.554 170.755 59.4192 171.016 59.3398C171.277 59.2605 171.552 59.2384 171.823 59.275L181.266 60.5534C182.662 60.5352 184.008 61.0714 185.009 62.0442C186.01 63.0171 186.585 64.3472 186.606 65.7431C186.628 67.1389 186.096 68.4864 185.126 69.4902C184.155 70.494 182.827 71.0721 181.431 71.0977L171.993 72.6192C171.724 72.6626 171.448 72.6475 171.185 72.5748C170.922 72.5021 170.678 72.3736 170.469 72.198C170.26 72.0224 170.092 71.8039 169.975 71.5573C169.858 71.3107 169.796 71.0418 169.792 70.769L169.67 61.1807C169.666 60.9079 169.722 60.6375 169.832 60.3879C169.943 60.1384 170.106 59.9157 170.31 59.7349Z" fill="#FF3541"/>
<path d="M197.049 79.5894C196.808 79.4625 196.597 79.2849 196.43 79.0688C196.264 78.8527 196.146 78.6032 196.084 78.3374L193.939 69.0527C193.429 67.7536 193.454 66.3051 194.01 65.0247C194.566 63.7443 195.607 62.7366 196.905 62.2224C198.202 61.7082 199.651 61.7295 200.933 62.2817C202.215 62.8338 203.226 63.8718 203.744 65.1679L208.505 73.4576C208.641 73.6942 208.725 73.9573 208.75 74.229C208.775 74.5007 208.741 74.7746 208.65 75.032C208.56 75.2894 208.415 75.5244 208.226 75.7208C208.037 75.9173 207.807 76.0706 207.553 76.1703L198.628 79.6766C198.374 79.7765 198.102 79.8205 197.829 79.8054C197.557 79.7904 197.291 79.7167 197.049 79.5894Z" fill="#FF3541"/>
<path d="M196.67 54.271C201.374 51.6992 203.103 45.8005 200.532 41.0959C197.96 36.3912 192.061 34.6622 187.356 37.234C182.652 39.8058 180.923 45.7045 183.495 50.4092C186.066 55.1138 191.965 56.8428 196.67 54.271Z" fill="#FFD0B6"/>
<path d="M185.335 41.8519C183.252 41.8402 181.169 41.8284 179.086 41.8167C178.938 40.3971 179.57 38.9848 180.49 37.8941C181.411 36.8034 182.603 35.9821 183.78 35.1745C184.975 34.3546 186.212 33.5161 187.633 33.2295C188.823 32.9894 190.054 33.156 191.256 33.3233C192.851 33.5451 194.446 33.7669 196.041 33.9886C197.792 34.2321 199.624 34.5075 201.046 35.5575C202.969 36.9775 202.478 40.2551 204.323 41.7748C209.896 46.3646 207.639 50.3729 207.743 54.5565C201.009 55.2629 194.274 55.9693 187.54 56.6757C186.809 56.8016 186.06 56.7798 185.338 56.6118C184.631 56.3955 183.982 55.81 183.93 55.0723C183.872 54.2484 184.525 53.5739 185.056 52.9411C186.323 51.3721 187.083 49.4556 187.236 47.4452C187.389 45.4348 186.929 43.4253 185.915 41.6824L185.335 41.8519Z" fill="#010E33"/>
<path d="M113.084 54.7211C113.045 54.6347 113.006 54.548 112.967 54.4609C112.982 54.4614 112.997 54.4636 113.012 54.464L113.084 54.7211Z" fill="#010E33"/>
<path d="M105.99 37.2137C106.426 36.8021 106.993 36.5569 107.592 36.521C108.186 36.5402 108.789 37.0769 108.666 37.6585C109.757 35.726 111.494 34.2398 113.572 33.4605C115.65 32.6813 117.937 32.6589 120.03 33.3974C121.506 33.9184 122.955 34.9608 123.294 36.4896C123.327 36.891 123.447 37.2805 123.645 37.6311C123.816 37.8186 124.039 37.9517 124.286 38.0141C124.532 38.0766 124.791 38.0656 125.032 37.9825L125.046 37.9782C125.128 37.9501 125.217 37.9473 125.301 37.9702C125.385 37.9932 125.46 38.0407 125.516 38.1067C125.573 38.1727 125.608 38.2542 125.618 38.3405C125.628 38.4269 125.611 38.5141 125.571 38.591L125.153 39.3704C125.68 39.4878 126.227 39.4761 126.748 39.3364C126.835 39.3137 126.926 39.3184 127.01 39.3497C127.094 39.3811 127.166 39.4376 127.217 39.5115C127.267 39.5855 127.293 39.6732 127.292 39.7627C127.291 39.8522 127.262 39.9391 127.209 40.0115C126.514 40.9616 125.608 41.7365 124.561 42.2744C123.515 42.8124 122.357 43.0987 121.18 43.1104C119.51 43.1003 117.824 42.5248 116.199 42.9088C115.57 43.0573 114.983 43.3447 114.48 43.7498C113.977 44.155 113.571 44.6676 113.292 45.2501C113.012 45.8326 112.867 46.4702 112.867 47.1162C112.866 47.7621 113.01 48.3999 113.288 48.9829C112.789 48.4369 111.824 48.5662 111.314 49.1015C111.079 49.3881 110.905 49.7199 110.803 50.0763C110.701 50.4328 110.674 50.8063 110.722 51.1738C110.859 52.2995 111.193 53.3922 111.71 54.4014C109.735 54.3406 107.827 53.6754 106.243 52.4955C104.659 51.3157 103.475 49.678 102.851 47.8038C102.227 45.9295 102.194 43.909 102.755 42.0152C103.317 40.1213 104.446 38.4454 105.99 37.2137Z" fill="#010E33"/>
<path d="M288.561 214.461H0.936457C0.830956 214.461 0.729883 214.419 0.65539 214.344C0.580897 214.269 0.539062 214.168 0.539062 214.063C0.539062 213.957 0.580897 213.856 0.65539 213.781C0.729883 213.706 0.830956 213.664 0.936457 213.664H288.561C288.613 213.664 288.665 213.674 288.714 213.694C288.762 213.714 288.806 213.743 288.843 213.78C288.88 213.817 288.91 213.861 288.93 213.91C288.95 213.958 288.96 214.01 288.96 214.063C288.96 214.115 288.95 214.167 288.93 214.215C288.91 214.264 288.88 214.308 288.843 214.345C288.806 214.382 288.762 214.411 288.714 214.431C288.665 214.451 288.613 214.461 288.561 214.461Z" fill="#CCCCCC"/>
<path d="M69.5982 3.97452C61.3249 2.85624 51.8796 7.32799 49.7353 15.3964C49.195 13.9618 48.2125 12.7362 46.9299 11.8966C45.6474 11.0569 44.1311 10.6468 42.6001 10.7253C41.0691 10.8039 39.6028 11.3671 38.4129 12.3336C37.223 13.3001 36.3712 14.6199 35.9805 16.1022L36.9276 16.7806C54.657 20.6146 73.0096 20.5316 90.7036 16.5375C84.9488 10.4894 77.8714 5.09279 69.5982 3.97452Z" fill="#0066FF" fill-opacity="0.2"/>
<path d="M34.1177 26.7323C25.8444 25.6141 16.3992 30.0858 14.2549 38.1542C13.7145 36.7196 12.732 35.494 11.4495 34.6544C10.1669 33.8147 8.65059 33.4046 7.11964 33.4831C5.58868 33.5617 4.12233 34.1249 2.93244 35.0914C1.74254 36.0579 0.890708 37.3777 0.5 38.86L1.44717 39.5384C19.1765 43.3724 37.5292 43.2894 55.2231 39.2953C49.4683 33.2472 42.391 27.8506 34.1177 26.7323Z" fill="#0066FF" fill-opacity="0.2"/>
</svg>
