<svg width="65" height="64" viewBox="0 0 65 64" fill="none" xmlns="http://www.w3.org/2000/svg">
<path d="M0.5 32C0.5 14.3269 14.8269 0 32.5 0C50.1731 0 64.5 14.3269 64.5 32C64.5 49.6731 50.1731 64 32.5 64C14.8269 64 0.5 49.6731 0.5 32Z" fill="#FFAE00" fill-opacity="0.16"/>
<path fill-rule="evenodd" clip-rule="evenodd" d="M27.7905 20H37.8762C38.8163 20 39.6208 19.9999 40.2821 20.054C40.9781 20.1108 41.6609 20.2358 42.3153 20.5692C43.2979 21.0699 44.0968 21.8688 44.5975 22.8514C44.9309 23.5058 45.0558 24.1886 45.1127 24.8846C45.1667 25.5459 45.1667 26.3503 45.1667 27.2905V37.3762C45.1667 38.3164 45.1667 39.1208 45.1127 39.7821C45.0558 40.4781 44.9309 41.1609 44.5975 41.8153C44.0968 42.7979 43.2979 43.5968 42.3153 44.0975C41.6609 44.4309 40.9781 44.5558 40.2821 44.6127C39.6208 44.6667 38.8164 44.6667 37.8762 44.6667H27.7905C26.8503 44.6667 26.0459 44.6667 25.3846 44.6127C24.6886 44.5558 24.0058 44.4309 23.3514 44.0975C22.3688 43.5968 21.5699 42.7979 21.0692 41.8153C20.7358 41.1609 20.6108 40.4781 20.554 39.7821C20.4999 39.1208 20.5 38.3163 20.5 37.3762V27.2905C20.5 26.3503 20.4999 25.5459 20.554 24.8846C20.6108 24.1886 20.7358 23.5058 21.0692 22.8514C21.5699 21.8688 22.3688 21.0699 23.3514 20.5692C24.0058 20.2358 24.6886 20.1108 25.3846 20.054C26.0459 19.9999 26.8503 20 27.7905 20ZM25.656 23.3762C25.1662 23.4163 24.9709 23.4851 24.8647 23.5392C24.5093 23.7203 24.2203 24.0093 24.0392 24.3647C23.9851 24.4709 23.9163 24.6662 23.8762 25.156C23.8346 25.6653 23.8333 26.3324 23.8333 27.3556V37.3111C23.8333 38.3343 23.8346 39.0014 23.8762 39.5107C23.9163 40.0005 23.9851 40.1958 24.0392 40.302C24.2203 40.6574 24.5093 40.9464 24.8647 41.1275C24.9709 41.1816 25.1662 41.2504 25.656 41.2904C26.1653 41.332 26.8324 41.3333 27.8556 41.3333H37.8111C38.8343 41.3333 39.5014 41.332 40.0107 41.2904C40.5005 41.2504 40.6958 41.1816 40.802 41.1275C41.1574 40.9464 41.4464 40.6574 41.6275 40.302C41.6816 40.1958 41.7504 40.0005 41.7904 39.5107C41.832 39.0014 41.8333 38.3343 41.8333 37.3111V27.3556C41.8333 26.3324 41.832 25.6653 41.7904 25.156C41.7504 24.6662 41.6816 24.4709 41.6275 24.3647C41.4464 24.0093 41.1574 23.7203 40.802 23.5392C40.6958 23.4851 40.5005 23.4163 40.0107 23.3762C39.5014 23.3346 38.8343 23.3333 37.8111 23.3333H27.8556C26.8324 23.3333 26.1653 23.3346 25.656 23.3762ZM32.8333 25.9259C33.7538 25.9259 34.5 26.6721 34.5 27.5926V32.3333C34.5 33.2538 33.7538 34 32.8333 34C31.9129 34 31.1667 33.2538 31.1667 32.3333V27.5926C31.1667 26.6721 31.9129 25.9259 32.8333 25.9259ZM31.1667 37.0741C31.1667 36.1536 31.9129 35.4074 32.8333 35.4074H32.8452C33.7657 35.4074 34.5119 36.1536 34.5119 37.0741C34.5119 37.9946 33.7657 38.7407 32.8452 38.7407H32.8333C31.9129 38.7407 31.1667 37.9946 31.1667 37.0741Z" fill="#FFAE00"/>
</svg>
